<svg id="e59bd285-b942-475d-9b6a-df778975b95e" data-name="OBJECTS" xmlns="http://www.w3.org/2000/svg" viewBox="0 0 699.32 431.08"><defs><style>.a0344ac7-238e-4b73-a194-1d4e18011b75{fill:#7d85ef;}.e6264f9f-a9ae-4091-957d-68b8a25e4691{fill:#d2dffe;}.a1568362-e290-450a-86ef-2398b9b60bda,.a96cb164-6426-41cf-af8c-7b1616d32991,.ab1453a2-1a99-4aba-bd79-81242ae4309f,.b159bca0-37c0-4ac3-9272-8d3a37ada27c,.b2a8d5bf-3fd6-433d-a7b3-d79cc2332d17,.b5fae2ea-d8b9-4f0b-94b3-4cf106ae2606,.b652b4b4-ffc4-4171-9b6c-295b597585a4,.bcc7a26a-443a-4c23-8283-7f7f20b4b0f0,.bd8d441b-668a-44d8-9cca-ea06680b4719,.bf00530a-ca3b-4448-ae0d-81846df9ec22,.e3a0fb6d-33ca-4b21-900c-87cd05bc5f7c,.e5f53342-1786-4271-9b73-7c8dfabb5e60,.e6264f9f-a9ae-4091-957d-68b8a25e4691,.e67d5528-3cf2-411d-8bdd-7f447c13acbd,.ea26946c-4e3b-4908-a2e7-98449195643d,.eae469f8-63b5-41f6-a30c-b3e772c0b71a,.efa981aa-6dd7-47de-925b-4c1cc740f773,.f36e4844-69a3-4c17-8a7a-ab3bef0e8c53,.f4fb3c71-c4f7-4063-9cd1-fb91f9d67d6d,.f6f217ec-5bf8-42ce-9317-6a4b3d85bf49,.f6f619fb-a2d7-4dbc-8b3c-e55145219a85{fill-rule:evenodd;}.a96cb164-6426-41cf-af8c-7b1616d32991,.bb843918-edb3-4b01-bd01-4b5c9a445005{fill:#becdf9;}.e67d5528-3cf2-411d-8bdd-7f447c13acbd{fill:#f6f9fb;}.bb63f66b-67a8-4b9a-9862-c87fb884a5fd,.bcc7a26a-443a-4c23-8283-7f7f20b4b0f0{fill:#6360ad;}.b6bc5dc9-f2a3-4cbb-9ca0-86c390aaec7e{fill:#e8edfb;}.ea26946c-4e3b-4908-a2e7-98449195643d{fill:#7070ba;}.b2a8d5bf-3fd6-433d-a7b3-d79cc2332d17{fill:#dfe8fe;}.eae469f8-63b5-41f6-a30c-b3e772c0b71a{fill:#42428c;}.b652b4b4-ffc4-4171-9b6c-295b597585a4{fill:#333775;}.e3a0fb6d-33ca-4b21-900c-87cd05bc5f7c{fill:#c3c5d8;}.f36e4844-69a3-4c17-8a7a-ab3bef0e8c53{fill:#d35970;}.ab1453a2-1a99-4aba-bd79-81242ae4309f{fill:#fff;}.f4fb3c71-c4f7-4063-9cd1-fb91f9d67d6d{fill:#fd9e89;}.e5f53342-1786-4271-9b73-7c8dfabb5e60{fill:#f8837a;}.bf00530a-ca3b-4448-ae0d-81846df9ec22{fill:#606788;}.f6f217ec-5bf8-42ce-9317-6a4b3d85bf49{fill:#fdc0b3;}.a1568362-e290-450a-86ef-2398b9b60bda{fill:#daddfb;}.f6f619fb-a2d7-4dbc-8b3c-e55145219a85{fill:#f0f1fe;}.efa981aa-6dd7-47de-925b-4c1cc740f773{fill:#b0bfef;}.bd8d441b-668a-44d8-9cca-ea06680b4719{fill:#dce4fe;}.b5fae2ea-d8b9-4f0b-94b3-4cf106ae2606{fill:#98a0de;}.b159bca0-37c0-4ac3-9272-8d3a37ada27c{fill:#b1b6e6;}.b90d8d91-f4c2-46de-9cb7-3ac130648c53{fill:#c6c8f4;}</style></defs><path class="a0344ac7-238e-4b73-a194-1d4e18011b75" d="M652,165.23a.78.78,0,0,1,1.56,0v3.5a.78.78,0,0,1-1.56,0Zm-5.29,2.84a.77.77,0,0,1,0-1.1.78.78,0,0,1,1.1,0l2.47,2.48a.78.78,0,0,1-1.1,1.1ZM645,173.83a.78.78,0,1,1,0-1.55h3.5a.78.78,0,1,1,0,1.55Zm2.85,5.3a.77.77,0,0,1-1.1,0,.76.76,0,0,1,0-1.09l2.47-2.48a.77.77,0,0,1,1.1,0,.78.78,0,0,1,0,1.1Zm5.75,1.74a.78.78,0,0,1-1.56,0v-3.49a.78.78,0,1,1,1.56,0Zm5.3-2.83a.77.77,0,0,1-1.1,1.09l-2.47-2.47a.78.78,0,0,1,0-1.1.77.77,0,0,1,1.1,0Zm1.75-5.76a.78.78,0,0,1,0,1.55h-3.51a.78.78,0,0,1,0-1.55ZM657.78,167a.78.78,0,0,1,1.1,1.1l-2.47,2.48a.78.78,0,1,1-1.1-1.1Z" transform="translate(-25.34 -34.46)"/><path class="e6264f9f-a9ae-4091-957d-68b8a25e4691" d="M149.64,34.46a87,87,0,0,0-86.75,86.75h0A87,87,0,0,0,149.64,208h0a17.46,17.46,0,0,1,17.41,17.41h0a17.46,17.46,0,0,1-17.41,17.41h-45.4A42.45,42.45,0,0,0,61.92,285.1h0a42.44,42.44,0,0,0,42.32,42.31A36.72,36.72,0,0,1,140.85,364h0a67,67,0,0,0,66.77,66.78h392a87,87,0,0,0,86.75-86.75h0a87,87,0,0,0-86.75-86.75H538.46a17.47,17.47,0,0,1-17.41-17.41h0a17.47,17.47,0,0,1,17.41-17.41H554a42.45,42.45,0,0,0,42.32-42.32h0a42.44,42.44,0,0,0-42.25-42.32h-4.49a36.71,36.71,0,0,1-36.6-36.6h0a67,67,0,0,0-66.78-66.78Z" transform="translate(-25.34 -34.46)"/><path class="e6264f9f-a9ae-4091-957d-68b8a25e4691" d="M652.8,223.58a41.93,41.93,0,1,0-41.92-41.93,41.93,41.93,0,0,0,41.92,41.93Z" transform="translate(-25.34 -34.46)"/><rect class="bb843918-edb3-4b01-bd01-4b5c9a445005" x="140.45" y="47.28" width="40.62" height="12.31"/><rect class="bb843918-edb3-4b01-bd01-4b5c9a445005" x="80.13" y="62.06" width="40.63" height="12.31"/><rect class="bb843918-edb3-4b01-bd01-4b5c9a445005" x="122.69" y="62.06" width="40.62" height="12.31"/><rect class="bb843918-edb3-4b01-bd01-4b5c9a445005" x="97.9" y="76.82" width="40.62" height="12.31"/><rect class="bb843918-edb3-4b01-bd01-4b5c9a445005" x="80.13" y="91.6" width="40.63" height="12.31"/><rect class="bb843918-edb3-4b01-bd01-4b5c9a445005" x="122.69" y="91.6" width="40.62" height="12.31"/><rect class="bb843918-edb3-4b01-bd01-4b5c9a445005" x="166.8" y="317.44" width="40.63" height="12.3"/><rect class="bb843918-edb3-4b01-bd01-4b5c9a445005" x="209.36" y="317.44" width="40.63" height="12.3"/><rect class="bb843918-edb3-4b01-bd01-4b5c9a445005" x="149.04" y="332.21" width="40.62" height="12.31"/><rect class="bb843918-edb3-4b01-bd01-4b5c9a445005" x="191.59" y="332.21" width="40.62" height="12.31"/><rect class="bb843918-edb3-4b01-bd01-4b5c9a445005" x="209.36" y="346.99" width="40.63" height="12.31"/><rect class="bb843918-edb3-4b01-bd01-4b5c9a445005" x="149.04" y="361.75" width="40.62" height="12.31"/><rect class="bb843918-edb3-4b01-bd01-4b5c9a445005" x="191.59" y="361.75" width="40.62" height="12.31"/><path class="a96cb164-6426-41cf-af8c-7b1616d32991" d="M261.16,71.83H440a8.32,8.32,0,0,1,8.29,8.29V335.18h6.36a5.58,5.58,0,0,1,5.56,5.57v22.78a5.57,5.57,0,0,1-5.56,5.56H246.51a5.58,5.58,0,0,1-5.57-5.56V340.75a5.59,5.59,0,0,1,5.57-5.57h6.36V80.12a8.32,8.32,0,0,1,8.29-8.29Z" transform="translate(-25.34 -34.46)"/><path class="e67d5528-3cf2-411d-8bdd-7f447c13acbd" d="M256.6,69.91H435.42a8.31,8.31,0,0,1,8.29,8.28v259a8.31,8.31,0,0,1-8.29,8.29H256.6a8.31,8.31,0,0,1-8.29-8.29v-259a8.31,8.31,0,0,1,8.29-8.28Z" transform="translate(-25.34 -34.46)"/><rect class="bb63f66b-67a8-4b9a-9862-c87fb884a5fd" x="238.13" y="179.57" width="165.09" height="108.08"/><rect class="b6bc5dc9-f2a3-4cbb-9ca0-86c390aaec7e" x="238.13" y="50.6" width="165.09" height="131.78"/><path class="ea26946c-4e3b-4908-a2e7-98449195643d" d="M279.75,101.34V142.8h58.12V101.34Zm0,57.74v41.47h58.12V159.08Zm74.4,41.47h58.13V159.08H354.15Zm58.13-57.75V101.34H354.15V142.8Z" transform="translate(-25.34 -34.46)"/><path class="a96cb164-6426-41cf-af8c-7b1616d32991" d="M405.69,132.59,395.48,142.8h-27L403,108.24h2.68ZM380.2,108.24h11.71L357.35,142.8h-3.2v-8.51Zm-42.33,85.4H317.61l20.26-20.26Zm-31.36,0h-11.7l34.55-34.56h8.51v3.2Zm72.69-34.56-25.05,25v-25Z" transform="translate(-25.34 -34.46)"/><path class="b2a8d5bf-3fd6-433d-a7b3-d79cc2332d17" d="M242,333.26H450.08a5.58,5.58,0,0,1,5.56,5.56V361.6a5.59,5.59,0,0,1-5.56,5.57H242a5.58,5.58,0,0,1-5.56-5.57V338.82a5.57,5.57,0,0,1,5.56-5.56Z" transform="translate(-25.34 -34.46)"/><path class="eae469f8-63b5-41f6-a30c-b3e772c0b71a" d="M351.7,227.68l-2.16.23-1.33,0-1.32-.05-2.13-.4L332.6,215l-28,12.31c.86,43.93-3.74,64.54-9.13,94.83h84.92c.11-13.05,5.37-32.37,6.47-42.85l4.79-48.56-26.9-14.47Z" transform="translate(-25.34 -34.46)"/><path class="b652b4b4-ffc4-4171-9b6c-295b597585a4" d="M356.84,322.11h15.33A50,50,0,0,1,380.8,316c1.21-12.41,5.17-27.77,6.11-36.71l.14-1.38c-.34-3.35-.72-7-1.13-10.86-1.55-14.41,1.8-24,5.13-29.72l.65-6.6-26.9-14.47-4.24,3.71-1.46,6.94s14.54,11.22,16.31,17.36-4.39,48.36-8.77,66.59c-1.07,4.46-4.8,8.19-9.8,11.28Z" transform="translate(-25.34 -34.46)"/><path class="b652b4b4-ffc4-4171-9b6c-295b597585a4" d="M304.68,229.05c.44,27-1.21,45.1-3.82,62.3h0s14.26-53.36,12.68-54.82c-1.23-1.14-2.77-2.42-8.86-7.48Z" transform="translate(-25.34 -34.46)"/><path class="e3a0fb6d-33ca-4b21-900c-87cd05bc5f7c" d="M363.58,213.12A35.38,35.38,0,0,0,334.06,212l1.54,4.67,26.08,1Z" transform="translate(-25.34 -34.46)"/><path class="b652b4b4-ffc4-4171-9b6c-295b597585a4" d="M351.7,227.68l-2.16.23-2.65-.1-2.13-.4-8.17-8.36-1.28.34-2.86,3.48s5.63,14.57,6,15.07,1,.77,2-.32,4-4.68,4-4.68.89-.85,1.25.17,4.83-1.57,4.83-1.57l.28,1s.69-.78,1.31.29,3.67,5.71,3.89,5.92,1.18.93,1.92-.46,8.69-17.49,10.08-20.33l-3.17-1.71Z" transform="translate(-25.34 -34.46)"/><path class="b652b4b4-ffc4-4171-9b6c-295b597585a4" d="M351.7,227.68l-2.16.23-2.65-.1-2.13-.4-.81-.83-1.91,3s3.94,1.45,3.79,4.94l-7.68,87.58h4.24l7.68-87.41c.3-3.48,4.17-4.63,4.17-4.63l-1.67-3.15Z" transform="translate(-25.34 -34.46)"/><path class="f36e4844-69a3-4c17-8a7a-ab3bef0e8c53" d="M349.65,191.59h0a11.25,11.25,0,0,1,10.75,11.64l-.58,14.82a11.25,11.25,0,0,1-11.64,10.75h0a11.24,11.24,0,0,1-10.76-11.64l.58-14.81a11.26,11.26,0,0,1,11.65-10.76Z" transform="translate(-25.34 -34.46)"/><path class="b652b4b4-ffc4-4171-9b6c-295b597585a4" d="M345.66,226.41l1.29-.16a1.28,1.28,0,0,1,.27.75c0,.46,0,1.82,0,1.82-.48.15-3,.57-2.92.21,0-.09,1.37-2.62,1.37-2.62Z" transform="translate(-25.34 -34.46)"/><path class="b652b4b4-ffc4-4171-9b6c-295b597585a4" d="M350.88,226.62l-1.27-.26a1.25,1.25,0,0,0-.32.72c-.06.46-.14,1.82-.14,1.82.46.38,3,.8,2.9.44,0-.09-1.17-2.72-1.17-2.72Z" transform="translate(-25.34 -34.46)"/><path class="ab1453a2-1a99-4aba-bd79-81242ae4309f" d="M363.58,213.12c.15.13,1.62,3,2.39,4.34a3.61,3.61,0,0,1,.09,3c-.62,1.83-8.42,16.73-8.42,16.73s-.55.79-1.34,0-6.69-10.76-6.69-10.76L362,214.27c.59-.68,1.45-1.29,1.58-1.15Z" transform="translate(-25.34 -34.46)"/><path class="ab1453a2-1a99-4aba-bd79-81242ae4309f" d="M334.06,212c-.1,0-1.85,2.84-2.73,4.15A3.61,3.61,0,0,0,331,219c.48,1.88,7.08,17.35,7.08,17.35s.48.82,1.33.06,7.52-10.2,7.52-10.2l-11.4-13c-.76-1-1.4-1.33-1.49-1.28Z" transform="translate(-25.34 -34.46)"/><path class="f36e4844-69a3-4c17-8a7a-ab3bef0e8c53" d="M327.5,177.62H327a6.85,6.85,0,1,0,5.45,2.19c-.12,2-.79,4.44-3.38,4.32l.64-3.89a2.34,2.34,0,0,0-2.19-2.62Z" transform="translate(-25.34 -34.46)"/><path class="f36e4844-69a3-4c17-8a7a-ab3bef0e8c53" d="M376.31,184.7l.48.16h0a6.84,6.84,0,1,1-5.85.54c-.46,2-.5,4.49,2,5.11l.5-3.92a2.34,2.34,0,0,1,2.85-1.89Z" transform="translate(-25.34 -34.46)"/><path class="f4fb3c71-c4f7-4063-9cd1-fb91f9d67d6d" d="M356.81,147.38h0a23.45,23.45,0,0,0-26.51,19.79l-3.06,21.06A23.45,23.45,0,0,0,347,214.74h0A23.46,23.46,0,0,0,373.54,195l3.06-21a23.48,23.48,0,0,0-19.79-26.52Z" transform="translate(-25.34 -34.46)"/><path class="e5f53342-1786-4271-9b73-7c8dfabb5e60" d="M343.76,214a23.46,23.46,0,0,0,3.27.71h0A23.46,23.46,0,0,0,373.54,195l3.06-21a23.08,23.08,0,0,0-1.05-11c-9.35-2.78-17.32-5-17.32-5s-29.5,0-26.34,8.12l.83,1.36s2.55-2.32,7-1.23,19.5,5,24.45,6.83,6.27,5.53,5.53,10.53-.23,7,1,7.79c0,0-1.91,22.72-27,22.72Z" transform="translate(-25.34 -34.46)"/><path class="ab1453a2-1a99-4aba-bd79-81242ae4309f" d="M343.51,197a6.05,6.05,0,1,0,11.9,2.21h0a1.06,1.06,0,0,0-.84-1.22l-9.83-1.83a1.06,1.06,0,0,0-1.22.84Z" transform="translate(-25.34 -34.46)"/><path class="ab1453a2-1a99-4aba-bd79-81242ae4309f" d="M344.86,202.07a6.09,6.09,0,0,0,6.81,1.7,3.74,3.74,0,0,0-3-2.83,3.83,3.83,0,0,0-3.82,1.13Z" transform="translate(-25.34 -34.46)"/><path class="ab1453a2-1a99-4aba-bd79-81242ae4309f" d="M354.7,198.05l-9.24-1.72a2.13,2.13,0,0,0,.59,2.47c.78.42,7.5,1.5,8.08,1a3.58,3.58,0,0,0,.57-1.8Z" transform="translate(-25.34 -34.46)"/><path class="f36e4844-69a3-4c17-8a7a-ab3bef0e8c53" d="M363.35,194.64a3.08,3.08,0,1,0,2.53,3.54,3.09,3.09,0,0,0-2.53-3.54Z" transform="translate(-25.34 -34.46)"/><path class="f36e4844-69a3-4c17-8a7a-ab3bef0e8c53" d="M337.23,190.34a3.08,3.08,0,1,0,2.53,3.54,3.06,3.06,0,0,0-2.53-3.54Z" transform="translate(-25.34 -34.46)"/><path class="b652b4b4-ffc4-4171-9b6c-295b597585a4" d="M341.42,187.66a2.24,2.24,0,0,0-.41-1.61,2.16,2.16,0,0,0-3-.44,2.1,2.1,0,0,0-.85,1.43.82.82,0,0,1-.94.69.84.84,0,0,1-.71-.94,3.83,3.83,0,0,1,4.34-3.24,3.76,3.76,0,0,1,2.52,1.5,3.86,3.86,0,0,1,.73,2.84.85.85,0,0,1-.95.71.83.83,0,0,1-.7-.94Zm23.85,3.46a2.18,2.18,0,0,0-1.83-2.46,2.2,2.2,0,0,0-1.61.41,2.17,2.17,0,0,0-.84,1.43.85.85,0,0,1-.94.71.83.83,0,0,1-.71-1,3.83,3.83,0,1,1,7.58,1.11.83.83,0,0,1-1.65-.24Zm1.82-7.46a6.1,6.1,0,0,0-5.65-.85.84.84,0,0,1-1.09-.45.82.82,0,0,1,.45-1.08,7.77,7.77,0,0,1,7.23,1,.83.83,0,0,1,.2,1.16.81.81,0,0,1-1.14.21Zm-29.57-4.29a.83.83,0,0,1-.52-1.58,7.76,7.76,0,0,1,7.22,1.08.83.83,0,0,1-1.05,1.29,6.06,6.06,0,0,0-5.65-.79Z" transform="translate(-25.34 -34.46)"/><path class="b652b4b4-ffc4-4171-9b6c-295b597585a4" d="M327.8,184.34s3.66-.91,4.53-6.83S333,173,333.42,170s3.38-8.19,9.65-7.28l11.28,1.64L365.64,166c6.25.91,7.62,6.63,7.17,9.72s-.24,1.62-1.09,7.55,2.39,7.83,2.39,7.83c.68-4.69,2.38-6.33,2.38-6.33s.91-6.29,1.71-11.78.33-13.09-6.15-19.21a27.92,27.92,0,0,0-31.66-4.59c-7.95,4-10.56,11.17-11.36,16.66s-1.72,11.78-1.72,11.78,1.17,2,.49,6.75Z" transform="translate(-25.34 -34.46)"/><path class="eae469f8-63b5-41f6-a30c-b3e772c0b71a" d="M343.07,162.68a23.64,23.64,0,0,0,26.4,4.75s6.78-4,8.89-.94c0,0,4.73-12.38-5.91-15.57,0,0,2.45-1.23,2.3-2.82s-3.65-6.36-14.62-4c0,0,.37-3.94-3.15-5.08s-15.25,2.84-18,10.9c0,0-2.28,5.92,4.13,12.73Z" transform="translate(-25.34 -34.46)"/><path class="bf00530a-ca3b-4448-ae0d-81846df9ec22" d="M379.29,158.71a10,10,0,0,0-.37-1.71c-3.06,1.6-9.64,3.81-19.86,1.14-9-2.34-9.77-11.43-9-18.13a21.18,21.18,0,0,0-9.1,6.28c0,3.29,1.7,8.06,9.14,13.09,10.53,7.1,23.85,1.94,29.17-.67Z" transform="translate(-25.34 -34.46)"/><path class="f4fb3c71-c4f7-4063-9cd1-fb91f9d67d6d" d="M243,130.88l0,1.8a3.13,3.13,0,0,1,1.54,1.77,21.13,21.13,0,0,1,1,2.53l9.39-3.41,0-.73-.75-2.24a.68.68,0,0,1,0-.67l-4.76-2.1Z" transform="translate(-25.34 -34.46)"/><path class="eae469f8-63b5-41f6-a30c-b3e772c0b71a" d="M330.83,215.75s-44.94-23.49-52.06-31.47-10.46-19.14-21.33-51.07c0,0-.39-1.48-2.7-1.32s-8.79,2.43-9.67,3.52a4.11,4.11,0,0,0-1.07,3.71c.32,1.51,13.14,51.22,16.77,58.65s36.54,38,43.38,45.16,26.68-27.18,26.68-27.18Z" transform="translate(-25.34 -34.46)"/><path class="b652b4b4-ffc4-4171-9b6c-295b597585a4" d="M252.85,132.22c-2.87.71-7.08,2.33-7.78,3.19a4.11,4.11,0,0,0-1.07,3.71c.32,1.51,13.14,51.22,16.77,58.65s36.54,38,43.38,45.16c2.14,2.23,5.54.4,9.22-3.15.31-1.88.39-3.05.17-3.25-1.58-1.46-3.68-3.16-15.24-12.8s-29.54-26.2-32.51-32.33-12.19-38.56-15.16-48.28c-2.87-9.35,1.85-10.8,2.22-10.9Z" transform="translate(-25.34 -34.46)"/><path class="f4fb3c71-c4f7-4063-9cd1-fb91f9d67d6d" d="M256.72,120.18a14,14,0,0,1,3.39-6.82c1-1.1-4-4.15-5.93,1.14,0,0-1.77,2-2.79,1.41s-2.61-16-2.79-17.74a1.78,1.78,0,0,0-2.67-1.33c-.52.48-.23,2.92-.08,6s.28,6.64,0,7-1,.32-1.72-1.36-4.53-11.1-5.37-11.56-2.38.4-2.24,2,4.32,10.94,4.47,12.3-1.2,1.31-1.81.56-6.56-10.24-7.34-10.7-2.31.47-1.74,2.06S236,114.05,236,114.84s-1.07,1.39-2.8.16-5-4.17-5.69-4.2-1.48,2,.06,3.52,5.24,5.6,5.71,6.27c2.48,3.51,3.76,7.39,6.09,9.87a8.07,8.07,0,0,0,3.15,2,11.83,11.83,0,0,0,9.34-.61c4.85-2.63,4-6.85,4.89-11.69Z" transform="translate(-25.34 -34.46)"/><path class="f4fb3c71-c4f7-4063-9cd1-fb91f9d67d6d" d="M331.67,330.72l-3,2.54H303.9s1-3.07,2.59-4a3.7,3.7,0,0,1,1.46-.31,5.2,5.2,0,0,1,1.92-1.48,85.05,85.05,0,0,1,10-2.41c3-.53,6,.52,7.41.52a34.16,34.16,0,0,0,3.68-.31Z" transform="translate(-25.34 -34.46)"/><path class="eae469f8-63b5-41f6-a30c-b3e772c0b71a" d="M391.7,230.7s4.56,3.22,6.74,13,7.72,59.15,8.77,67.73.7,21.88-18.22,21.88H328.7v-8.82a2.79,2.79,0,0,1,3-3.11c1.53,0,47.58-5,49.77-5.61s3.24-1.84,3.33-4.47-7.45-33-9-44.42,5.08-36.45,15.91-36.13Z" transform="translate(-25.34 -34.46)"/><path class="b652b4b4-ffc4-4171-9b6c-295b597585a4" d="M407.54,315.61c.18,8.13-2.54,17.65-18.55,17.65H328.7v-6.93c1.47,1.85,4.44,4,10.24,4h47.5c7.27,0,20.83-5.26,21.1-14.68Z" transform="translate(-25.34 -34.46)"/><path class="b652b4b4-ffc4-4171-9b6c-295b597585a4" d="M375.79,266.83c1.07,7.69,4.86,24.09,7.17,34.71a93.46,93.46,0,0,1,1.86,9.71c-.08,2.42-1,3.65-2.82,4.31,4.57-.76,6.11-2.89,6.89-5.78.68-2.46.08-12.79-1.84-31.9q-.51-5-1.13-10.86c-1.55-14.41,1.8-24,5.13-29.72a31.28,31.28,0,0,1,2.89-4.19,11.57,11.57,0,0,0-2.24-2.41c-10.83-.32-17.48,24.74-15.91,36.13Z" transform="translate(-25.34 -34.46)"/><path class="f6f217ec-5bf8-42ce-9317-6a4b3d85bf49" d="M346.19,193.15s2.06-2.14,2.72-2.72.79.09.72.95.14,2.5-.32,2.88-2.74,0-3.22-.19.1-.92.1-.92Z" transform="translate(-25.34 -34.46)"/><path class="a0344ac7-238e-4b73-a194-1d4e18011b75" d="M194.73,241.62a.69.69,0,0,1,1.37,0v3.08a.69.69,0,1,1-1.37,0Zm-4.66,2.5a.68.68,0,0,1,1-1l2.17,2.17a.68.68,0,0,1,0,1,.7.7,0,0,1-1,0Zm-1.54,5.07a.69.69,0,0,1,0-1.38h3.08a.69.69,0,0,1,0,1.38Zm2.51,4.66a.68.68,0,0,1-1,0,.67.67,0,0,1,0-1l2.17-2.19a.7.7,0,0,1,1,0,.68.68,0,0,1,0,1Zm5.06,1.53a.69.69,0,1,1-1.37,0V252.3a.69.69,0,0,1,1.37,0Zm4.67-2.49a.68.68,0,1,1-1,1l-2.18-2.18a.68.68,0,0,1,1-1Zm1.52-5.08a.69.69,0,0,1,0,1.38h-3.08a.69.69,0,0,1,0-1.38Zm-2.49-4.65a.66.66,0,0,1,1,0,.69.69,0,0,1,0,1l-2.19,2.18a.68.68,0,0,1-1-1Z" transform="translate(-25.34 -34.46)"/><path class="a1568362-e290-450a-86ef-2398b9b60bda" d="M61,360.2h3.87a1.3,1.3,0,0,1,1.29,1.28v3.88a1.3,1.3,0,0,1-1.29,1.29H61a1.29,1.29,0,0,1-1.29-1.29v-3.88A1.28,1.28,0,0,1,61,360.2Z" transform="translate(-25.34 -34.46)"/><path class="a1568362-e290-450a-86ef-2398b9b60bda" d="M74.21,360.2h3.88a1.29,1.29,0,0,1,1.29,1.28v3.88a1.29,1.29,0,0,1-1.29,1.29H74.21a1.3,1.3,0,0,1-1.29-1.29v-3.88a1.3,1.3,0,0,1,1.29-1.28Z" transform="translate(-25.34 -34.46)"/><path class="a1568362-e290-450a-86ef-2398b9b60bda" d="M87.44,360.2h3.87a1.29,1.29,0,0,1,1.29,1.28v3.88a1.29,1.29,0,0,1-1.29,1.29H87.44a1.29,1.29,0,0,1-1.29-1.29v-3.88a1.29,1.29,0,0,1,1.29-1.28Z" transform="translate(-25.34 -34.46)"/><path class="a1568362-e290-450a-86ef-2398b9b60bda" d="M100.67,360.2h3.87a1.29,1.29,0,0,1,1.29,1.28v3.88a1.29,1.29,0,0,1-1.29,1.29h-3.87a1.29,1.29,0,0,1-1.29-1.29v-3.88a1.28,1.28,0,0,1,1.29-1.28Z" transform="translate(-25.34 -34.46)"/><path class="a0344ac7-238e-4b73-a194-1d4e18011b75" d="M145.48,60.71a.68.68,0,0,1,1.36,0v3.07a.68.68,0,1,1-1.36,0Zm-4.67,2.5a.68.68,0,0,1,0-1,.7.7,0,0,1,1,0L144,64.42a.68.68,0,1,1-1,1Zm-1.53,5.06a.68.68,0,1,1,0-1.36h3.08a.68.68,0,0,1,0,1.36Zm2.5,4.67a.69.69,0,0,1-1-1L143,69.79a.68.68,0,0,1,1,1Zm5.06,1.53a.68.68,0,0,1-1.36,0V71.39a.68.68,0,0,1,1.36,0Zm4.67-2.5a.7.7,0,0,1,0,1,.68.68,0,0,1-1,0l-2.17-2.18a.67.67,0,0,1,0-1,.7.7,0,0,1,1,0ZM153,66.91a.68.68,0,1,1,0,1.36H150a.68.68,0,1,1,0-1.36Zm-2.5-4.67a.69.69,0,0,1,1,1l-2.17,2.17a.68.68,0,0,1-1,0,.65.65,0,0,1,0-1Z" transform="translate(-25.34 -34.46)"/><path class="f6f619fb-a2d7-4dbc-8b3c-e55145219a85" d="M177.36,193h3.88a1.31,1.31,0,0,1,1.29,1.29v3.88a1.3,1.3,0,0,1-1.29,1.29h-3.88a1.3,1.3,0,0,1-1.29-1.29v-3.88a1.31,1.31,0,0,1,1.29-1.29Z" transform="translate(-25.34 -34.46)"/><path class="f6f619fb-a2d7-4dbc-8b3c-e55145219a85" d="M190.59,193h3.87a1.29,1.29,0,0,1,1.29,1.29v3.88a1.29,1.29,0,0,1-1.29,1.29h-3.87a1.29,1.29,0,0,1-1.29-1.29v-3.88a1.3,1.3,0,0,1,1.29-1.29Z" transform="translate(-25.34 -34.46)"/><path class="f6f619fb-a2d7-4dbc-8b3c-e55145219a85" d="M203.82,193h3.87a1.3,1.3,0,0,1,1.29,1.29v3.88a1.29,1.29,0,0,1-1.29,1.29h-3.87a1.29,1.29,0,0,1-1.29-1.29v-3.88a1.3,1.3,0,0,1,1.29-1.29Z" transform="translate(-25.34 -34.46)"/><path class="f6f619fb-a2d7-4dbc-8b3c-e55145219a85" d="M217.05,193h3.87a1.31,1.31,0,0,1,1.29,1.29v3.88a1.3,1.3,0,0,1-1.29,1.29h-3.87a1.29,1.29,0,0,1-1.29-1.29v-3.88a1.29,1.29,0,0,1,1.29-1.29Z" transform="translate(-25.34 -34.46)"/><path class="a96cb164-6426-41cf-af8c-7b1616d32991" d="M551.86,137.84v84.64h-13.4a17.47,17.47,0,0,0-17.41,17.41h0a17.47,17.47,0,0,0,17.41,17.41h13.4V430.8H475.19V41.11A67,67,0,0,1,513,101.24h0a36.71,36.71,0,0,0,36.6,36.6Z" transform="translate(-25.34 -34.46)"/><path class="b2a8d5bf-3fd6-433d-a7b3-d79cc2332d17" d="M481.87,44.86V430.8H468.49V38.31a65.63,65.63,0,0,1,13.38,6.55Z" transform="translate(-25.34 -34.46)"/><path class="b2a8d5bf-3fd6-433d-a7b3-d79cc2332d17" d="M498.41,59.72V430.8H485V47a67.9,67.9,0,0,1,13.39,12.73Z" transform="translate(-25.34 -34.46)"/><path class="b2a8d5bf-3fd6-433d-a7b3-d79cc2332d17" d="M515,113V430.8H501.56V64A66.36,66.36,0,0,1,513,101.24h0A36.21,36.21,0,0,0,515,113Z" transform="translate(-25.34 -34.46)"/><path class="b2a8d5bf-3fd6-433d-a7b3-d79cc2332d17" d="M531.48,133v91a17.46,17.46,0,0,0-10.43,15.93h0a17.46,17.46,0,0,0,10.43,15.93v175H518.09v-311A37,37,0,0,0,531.48,133Z" transform="translate(-25.34 -34.46)"/><path class="b2a8d5bf-3fd6-433d-a7b3-d79cc2332d17" d="M548,137.81v84.67h-9.56a17.29,17.29,0,0,0-3.83.43V134.62A36.39,36.39,0,0,0,548,137.81Zm0,119.49V430.8H534.63V256.87a17.29,17.29,0,0,0,3.83.43Z" transform="translate(-25.34 -34.46)"/><path class="f6f619fb-a2d7-4dbc-8b3c-e55145219a85" d="M368.55,399.82h3.88a1.29,1.29,0,0,1,1.29,1.29V405a1.29,1.29,0,0,1-1.29,1.29h-3.88a1.29,1.29,0,0,1-1.29-1.29v-3.86a1.29,1.29,0,0,1,1.29-1.29Z" transform="translate(-25.34 -34.46)"/><path class="f6f619fb-a2d7-4dbc-8b3c-e55145219a85" d="M381.79,399.82h3.86a1.28,1.28,0,0,1,1.29,1.29V405a1.28,1.28,0,0,1-1.29,1.29h-3.86A1.28,1.28,0,0,1,380.5,405v-3.86a1.28,1.28,0,0,1,1.29-1.29Z" transform="translate(-25.34 -34.46)"/><path class="f6f619fb-a2d7-4dbc-8b3c-e55145219a85" d="M395,399.82h3.88a1.29,1.29,0,0,1,1.29,1.29V405a1.29,1.29,0,0,1-1.29,1.29H395a1.29,1.29,0,0,1-1.29-1.29v-3.86a1.29,1.29,0,0,1,1.29-1.29Z" transform="translate(-25.34 -34.46)"/><path class="f6f619fb-a2d7-4dbc-8b3c-e55145219a85" d="M408.24,399.82h3.87a1.29,1.29,0,0,1,1.29,1.29V405a1.29,1.29,0,0,1-1.29,1.29h-3.87A1.29,1.29,0,0,1,407,405v-3.86a1.29,1.29,0,0,1,1.29-1.29Z" transform="translate(-25.34 -34.46)"/><path class="f6f619fb-a2d7-4dbc-8b3c-e55145219a85" d="M390.74,48.64h3.88a1.29,1.29,0,0,1,1.29,1.29V53.8a1.29,1.29,0,0,1-1.29,1.29h-3.88a1.29,1.29,0,0,1-1.28-1.29V49.93a1.29,1.29,0,0,1,1.28-1.29Z" transform="translate(-25.34 -34.46)"/><path class="f6f619fb-a2d7-4dbc-8b3c-e55145219a85" d="M404,48.64h3.86a1.29,1.29,0,0,1,1.29,1.29V53.8a1.29,1.29,0,0,1-1.29,1.29H404a1.29,1.29,0,0,1-1.29-1.29V49.93A1.29,1.29,0,0,1,404,48.64Z" transform="translate(-25.34 -34.46)"/><path class="f6f619fb-a2d7-4dbc-8b3c-e55145219a85" d="M417.2,48.64h3.87a1.3,1.3,0,0,1,1.3,1.29V53.8a1.3,1.3,0,0,1-1.3,1.29H417.2a1.3,1.3,0,0,1-1.29-1.29V49.93a1.3,1.3,0,0,1,1.29-1.29Z" transform="translate(-25.34 -34.46)"/><path class="f6f619fb-a2d7-4dbc-8b3c-e55145219a85" d="M430.42,48.64h3.88a1.29,1.29,0,0,1,1.29,1.29V53.8a1.29,1.29,0,0,1-1.29,1.29h-3.88a1.3,1.3,0,0,1-1.29-1.29V49.93a1.3,1.3,0,0,1,1.29-1.29Z" transform="translate(-25.34 -34.46)"/><path class="f6f619fb-a2d7-4dbc-8b3c-e55145219a85" d="M576.44,287.27h3.87a1.29,1.29,0,0,1,1.29,1.29v3.86a1.29,1.29,0,0,1-1.29,1.29h-3.87a1.29,1.29,0,0,1-1.29-1.29v-3.86a1.29,1.29,0,0,1,1.29-1.29Z" transform="translate(-25.34 -34.46)"/><path class="f6f619fb-a2d7-4dbc-8b3c-e55145219a85" d="M589.66,287.27h3.88a1.29,1.29,0,0,1,1.29,1.29v3.86a1.29,1.29,0,0,1-1.29,1.29h-3.88a1.29,1.29,0,0,1-1.28-1.29v-3.86a1.28,1.28,0,0,1,1.28-1.29Z" transform="translate(-25.34 -34.46)"/><path class="f6f619fb-a2d7-4dbc-8b3c-e55145219a85" d="M602.89,287.27h3.88a1.28,1.28,0,0,1,1.28,1.29v3.86a1.29,1.29,0,0,1-1.28,1.29h-3.88a1.29,1.29,0,0,1-1.29-1.29v-3.86a1.29,1.29,0,0,1,1.29-1.29Z" transform="translate(-25.34 -34.46)"/><path class="f6f619fb-a2d7-4dbc-8b3c-e55145219a85" d="M616.12,287.27H620a1.29,1.29,0,0,1,1.29,1.29v3.86a1.29,1.29,0,0,1-1.29,1.29h-3.87a1.29,1.29,0,0,1-1.29-1.29v-3.86a1.29,1.29,0,0,1,1.29-1.29Z" transform="translate(-25.34 -34.46)"/><path class="eae469f8-63b5-41f6-a30c-b3e772c0b71a" d="M125.38,420.77a128.8,128.8,0,0,1,3-27l.06-.23c.1-.41.42-1.2,1.25-1,1.11.3,10.2,5.41,18.7,14.06s8.36-4.36,1-9.48-14.91-7.27-17.16-9.23a4.77,4.77,0,0,1-1.87-4.19h0c1.76-9.92,3.08-20.07,4-30.07h0s.42-2.19,2.5.37,10.11,11.48,16.37,12.06.53-9.33-8.31-14.19-9.92-5.9-9.83-7.09h0c.56-7.88.89-15.59,1-22.93h0s.36-1.32,1.53-.36,10,11,14.64,9.94.13-9.63-7.34-12.63-8.77-3.91-8.78-5h0c-.08-21.73-2-39.24-4.89-46.68-3-7.76,16.08,9.79,33.72,38.42,1.51,2.6,1.41,4.1.43,7.26-1,3.39-2.21,11,.55,9.25s3.15-8.49,3.37-8.61a.25.25,0,0,1,.34.06c2.89,5.12,5.67,10.51,8.25,16.11,2.65,6.29-.9,10.58-5.84,16.71-5.12,6.37-4.2,13.12,1.24,10.28s8-16.05,8.43-16.41.71.16.76.25a153.87,153.87,0,0,1,8.21,28.78c.36,4.9-3.63,8.95-7.82,15.57s-1,10.69,2.36,9.78,5.57-9.05,6.29-9.57.88-.08.91,0a92.84,92.84,0,0,1-3.09,28.39,188.37,188.37,0,0,1-7.07,21.13H139.11Z" transform="translate(-25.34 -34.46)"/><path class="b652b4b4-ffc4-4171-9b6c-295b597585a4" d="M175.57,434.5c-5.66-75.61-25.09-141.11-25.18-141.44a1.71,1.71,0,0,0-3.28.95c.1.33,19.42,65.44,25.08,140.49Z" transform="translate(-25.34 -34.46)"/><path class="efa981aa-6dd7-47de-925b-4c1cc740f773" d="M211.19,330.52c32.76-19.4,41.8,21,35.17,39.26C241.43,383.31,224,413,211.69,434.5H166c5.93-45.25,21.09-89.7,45.19-104Z" transform="translate(-25.34 -34.46)"/><path class="bd8d441b-668a-44d8-9cca-ea06680b4719" d="M185.9,434.5c16.67-52.9,42.19-96.67,42.32-96.9a1.88,1.88,0,0,1,2.11-.73,1.12,1.12,0,0,1,.74,1.65c-.13.23-25.43,43.6-42,96Z" transform="translate(-25.34 -34.46)"/><path class="f6f619fb-a2d7-4dbc-8b3c-e55145219a85" d="M70.85,307.38c10.1-38.17,45.69-17.27,61,15.36,8.63,18.42,23.57,67,40.39,111.76H129.51l-12.69-7.13c-29.54-55.24-50-104.75-46-120Z" transform="translate(-25.34 -34.46)"/><path class="ab1453a2-1a99-4aba-bd79-81242ae4309f" d="M139.91,425.32c-32.47-61.59-49.4-121.39-49.48-121.69a1.59,1.59,0,0,1,3-.88c.09.33,18.7,66,54.19,130.32Z" transform="translate(-25.34 -34.46)"/><rect class="bb843918-edb3-4b01-bd01-4b5c9a445005" x="609.17" y="279.37" width="40.62" height="12.31"/><rect class="bb843918-edb3-4b01-bd01-4b5c9a445005" x="591.4" y="294.14" width="40.63" height="12.31"/><path class="a96cb164-6426-41cf-af8c-7b1616d32991" d="M659.3,328.6H685a85.85,85.85,0,0,1,1.33,12.31h-27Z" transform="translate(-25.34 -34.46)"/><rect class="bb843918-edb3-4b01-bd01-4b5c9a445005" x="609.17" y="308.91" width="40.62" height="12.31"/><path class="a96cb164-6426-41cf-af8c-7b1616d32991" d="M677.07,343.37h9.31c0,.22,0,.45,0,.68h0a85.83,85.83,0,0,1-.79,11.63h-8.53Z" transform="translate(-25.34 -34.46)"/><path class="a96cb164-6426-41cf-af8c-7b1616d32991" d="M659.3,358.14h25.93a87,87,0,0,1-3,12.31h-23Z" transform="translate(-25.34 -34.46)"/><path class="a0344ac7-238e-4b73-a194-1d4e18011b75" d="M591.18,371.21a.69.69,0,1,1,1.37,0v3.07a.69.69,0,1,1-1.37,0Zm-4.66,2.49a.68.68,0,0,1,0-1,.7.7,0,0,1,1,0l2.17,2.19a.67.67,0,0,1,0,1,.68.68,0,0,1-1,0ZM585,378.77a.69.69,0,1,1,0-1.37h3.07a.69.69,0,1,1,0,1.37Zm2.5,4.66a.69.69,0,0,1-1-1l2.17-2.17a.69.69,0,0,1,1,1Zm5.06,1.54a.69.69,0,0,1-1.37,0v-3.08a.69.69,0,1,1,1.37,0Zm4.66-2.51a.68.68,0,0,1,0,1,.67.67,0,0,1-1,0l-2.18-2.17a.69.69,0,0,1,1-1Zm1.54-5.06a.69.69,0,0,1,0,1.37h-3.08a.69.69,0,1,1,0-1.37Zm-2.5-4.67a.68.68,0,0,1,1,1L595,375.88a.68.68,0,0,1-1,0,.67.67,0,0,1,0-1Z" transform="translate(-25.34 -34.46)"/><path class="b652b4b4-ffc4-4171-9b6c-295b597585a4" d="M664.46,308.52c9.44,30.67,13,47.34,18,61.12a86,86,0,0,0,3.88-25.59h0V300c0-80-33.59-29.32-21.93,8.48Z" transform="translate(-25.34 -34.46)"/><path class="eae469f8-63b5-41f6-a30c-b3e772c0b71a" d="M547.36,425.22A118.51,118.51,0,0,1,528,386.53c-7.82-27.63,24.28,3,49.61,38.69Z" transform="translate(-25.34 -34.46)"/><path class="eae469f8-63b5-41f6-a30c-b3e772c0b71a" d="M591.5,425.22c-7.91-13.37-15.75-31-17-49.47-2.6-38.95-3.34-51.2-10.76-57.5-6.37-5.41,70.37-4.25,102.55,81.15a87.28,87.28,0,0,1-36.15,25.82Z" transform="translate(-25.34 -34.46)"/><path class="bcc7a26a-443a-4c23-8283-7f7f20b4b0f0" d="M574.75,316.89c29,26.43,51.9,65.51,68.65,102-.8.47-1.61.93-2.42,1.37-17.16-37.45-40.78-77.65-70.91-103.8,1.38.07,2.95.22,4.68.45Z" transform="translate(-25.34 -34.46)"/><path class="a96cb164-6426-41cf-af8c-7b1616d32991" d="M657.17,274.1c6.41,15.78,15.86,51.18,27,89.28a87.16,87.16,0,0,1-31.59,49.25C625.54,374,602,330.08,593.16,295.27c-17.72-70.06,37.42-86.76,64-21.17Z" transform="translate(-25.34 -34.46)"/><path class="b5fae2ea-d8b9-4f0b-94b3-4cf106ae2606" d="M668.2,397c-37.47-65.53-54.93-142.42-55-142.75a1.39,1.39,0,0,1,1-1.68,1.41,1.41,0,0,1,1.68,1.05c.08.33,17.29,76.13,54.09,141-.6.81-1.2,1.62-1.81,2.41Z" transform="translate(-25.34 -34.46)"/><path class="b5fae2ea-d8b9-4f0b-94b3-4cf106ae2606" d="M632,424.49a93.08,93.08,0,0,0-6.84-20.16c-12.49-26.21-43.71-36.42-52.6-32.43-7.25,3.27-21.87,23.49-11,53.32h68.55c.62-.24,1.23-.47,1.85-.73Z" transform="translate(-25.34 -34.46)"/><path class="b159bca0-37c0-4ac3-9272-8d3a37ada27c" d="M613.9,425.22c1.59-4.28,4.87-13.69,5.3-19.38a.79.79,0,0,0-.73-.86.8.8,0,0,0-.85.74c-.4,5.3-3.41,14-5,18.46a176.85,176.85,0,0,0-13.51-22.32,72.66,72.66,0,0,0,2.52-19.17.8.8,0,1,0-1.6.06,69.12,69.12,0,0,1-2.14,17.42A179.6,179.6,0,0,0,575.62,375a1.59,1.59,0,1,0-2.18,2.32c4.27,4,8.19,8.09,11.79,12.19a48.72,48.72,0,0,0-13.08-.72.81.81,0,0,0-.72.87.8.8,0,0,0,.88.71,49,49,0,0,1,14.62,1.11,171.79,171.79,0,0,1,14.39,19.41c-5.7-.55-19.7-1.47-33.29,1a.8.8,0,0,0,.29,1.57c14.52-2.67,29.56-1.37,34.09-.87,2.67,4.28,5,8.51,7.14,12.61Z" transform="translate(-25.34 -34.46)"/><path class="a1568362-e290-450a-86ef-2398b9b60bda" d="M557.83,91.2h4.4a1.47,1.47,0,0,1,1.47,1.47v4.39a1.47,1.47,0,0,1-1.47,1.47h-4.4a1.47,1.47,0,0,1-1.47-1.47V92.67a1.47,1.47,0,0,1,1.47-1.47Z" transform="translate(-25.34 -34.46)"/><path class="a1568362-e290-450a-86ef-2398b9b60bda" d="M572.87,91.2h4.39a1.47,1.47,0,0,1,1.47,1.47v4.39a1.47,1.47,0,0,1-1.47,1.47h-4.39a1.47,1.47,0,0,1-1.47-1.47V92.67a1.47,1.47,0,0,1,1.47-1.47Z" transform="translate(-25.34 -34.46)"/><path class="a1568362-e290-450a-86ef-2398b9b60bda" d="M587.9,91.2h4.4a1.47,1.47,0,0,1,1.47,1.47v4.39a1.47,1.47,0,0,1-1.47,1.47h-4.4a1.47,1.47,0,0,1-1.46-1.47V92.67a1.47,1.47,0,0,1,1.46-1.47Z" transform="translate(-25.34 -34.46)"/><path class="a1568362-e290-450a-86ef-2398b9b60bda" d="M602.94,91.2h4.4a1.47,1.47,0,0,1,1.46,1.47v4.39a1.47,1.47,0,0,1-1.46,1.47h-4.4a1.47,1.47,0,0,1-1.47-1.47V92.67a1.47,1.47,0,0,1,1.47-1.47Z" transform="translate(-25.34 -34.46)"/><path class="b90d8d91-f4c2-46de-9cb7-3ac130648c53" d="M670.36,84a.78.78,0,1,1,1.56,0v3.5a.78.78,0,0,1-1.56,0Zm-5.3,2.84a.78.78,0,0,1,0-1.1.77.77,0,0,1,1.1,0l2.48,2.48a.78.78,0,0,1-1.1,1.1Zm-1.74,5.75a.78.78,0,1,1,0-1.55h3.5a.78.78,0,0,1,0,1.55Zm2.84,5.31a.78.78,0,1,1-1.1-1.1l2.48-2.48a.78.78,0,0,1,1.1,0,.8.8,0,0,1,0,1.11Zm5.76,1.74a.78.78,0,0,1-1.56,0v-3.5a.78.78,0,1,1,1.56,0Zm5.3-2.84a.78.78,0,1,1-1.1,1.1l-2.48-2.47a.82.82,0,0,1,0-1.11.78.78,0,0,1,1.1,0ZM679,91.05a.78.78,0,1,1,0,1.55h-3.5a.78.78,0,0,1,0-1.55Zm-2.84-5.3a.77.77,0,0,1,1.1,0,.78.78,0,0,1,0,1.1l-2.48,2.48a.78.78,0,0,1-1.1,0,.8.8,0,0,1,0-1.1Z" transform="translate(-25.34 -34.46)"/><path class="b90d8d91-f4c2-46de-9cb7-3ac130648c53" d="M65.4,222.26a.78.78,0,1,1,1.56,0v3.5a.78.78,0,0,1-1.56,0Zm-5.29,2.85a.76.76,0,0,1,0-1.11.78.78,0,0,1,1.1,0l2.46,2.48a.77.77,0,1,1-1.09,1.1Zm-1.75,5.76a.79.79,0,0,1,0-1.57h3.51a.79.79,0,0,1,0,1.57Zm2.85,5.29a.77.77,0,0,1-1.1,0,.75.75,0,0,1,0-1.1l2.47-2.47a.77.77,0,1,1,1.09,1.1ZM67,237.9a.78.78,0,1,1-1.56,0v-3.5a.78.78,0,1,1,1.56,0Zm5.3-2.84a.78.78,0,1,1-1.1,1.1l-2.47-2.47a.78.78,0,1,1,1.1-1.1ZM74,229.3a.79.79,0,0,1,0,1.57H70.5a.79.79,0,0,1,0-1.57ZM71.16,224a.78.78,0,1,1,1.1,1.11l-2.47,2.47a.78.78,0,0,1-1.1-1.1Z" transform="translate(-25.34 -34.46)"/><path class="b652b4b4-ffc4-4171-9b6c-295b597585a4" d="M34.12,426H715.87a8.81,8.81,0,0,1,8.79,8.78h0a8.82,8.82,0,0,1-8.79,8.79H686.24a4.89,4.89,0,0,0-4.88,4.88h0a4.9,4.9,0,0,0,4.88,4.88h10.83a6.12,6.12,0,0,1,6.11,6.1h0a6.12,6.12,0,0,1-6.11,6.09H53.89a6.11,6.11,0,0,1-6.1-6.09h0a6.11,6.11,0,0,1,6.1-6.1h8.54a4.9,4.9,0,0,0,4.87-4.88h0a4.88,4.88,0,0,0-4.87-4.88H34.12a8.81,8.81,0,0,1-8.78-8.79h0A8.8,8.8,0,0,1,34.12,426Zm4.58,39.52h0a5.87,5.87,0,0,1-5.86-5.86v-.48a5.87,5.87,0,0,1,5.86-5.85h0a5.86,5.86,0,0,1,5.85,5.85v.48a5.87,5.87,0,0,1-5.85,5.86Z" transform="translate(-25.34 -34.46)"/></svg>